<?xml version="1.0" standalone="no"?>
<!DOCTYPE svg PUBLIC "-//W3C//DTD SVG 20010904//EN"
 "http://www.w3.org/TR/2001/REC-SVG-20010904/DTD/svg10.dtd">
<svg version="1.0" xmlns="http://www.w3.org/2000/svg"
 width="512.000000pt" height="512.000000pt" viewBox="0 0 512.000000 512.000000"
 preserveAspectRatio="xMidYMid meet">
<metadata>
Created by potrace 1.14, written by Peter Selinger 2001-2017
</metadata>
<g transform="translate(0.000000,512.000000) scale(0.100000,-0.100000)"
fill="#000000" stroke="none">
<path d="M108 4122 c-108 -108 -108 -108 -108 -157 l0 -49 620 -621 620 -620
-620 -620 -620 -620 0 -47 c0 -43 4 -50 72 -124 98 -104 140 -134 192 -134 40
0 42 2 788 748 508 508 749 756 754 775 3 15 3 39 -1 55 -7 30 -1449 1482
-1497 1508 -15 8 -42 14 -60 14 -27 0 -47 -15 -140 -108z"/>
<path d="M1973 1266 c-28 -24 -28 -26 -31 -156 -3 -88 0 -142 9 -161 26 -63
-92 -59 1580 -59 l1527 0 31 26 31 26 0 148 c0 146 0 148 -26 174 l-27 26
-1533 0 -1533 0 -28 -24z"/>
</g>
</svg>
